<svg xmlns="http://www.w3.org/2000/svg" xmlns:xlink="http://www.w3.org/1999/xlink" viewBox="0 0 40 40">
  <defs>
    <style>
      .cls-1 {
        fill: url(#linear-gradient);
      }

      .cls-2 {
        fill: #fff;
      }
    </style>
    <linearGradient id="linear-gradient" x2="1" y2="1" gradientUnits="objectBoundingBox">
      <stop offset="0" stop-color="#f02fc2"/>
      <stop offset="1" stop-color="#6094ea"/>
    </linearGradient>
  </defs>
  <g id="LinkedIn_Icon" data-name="LinkedIn Icon" transform="translate(-112 -895)">
    <circle id="Ellipse_5" data-name="Ellipse 5" class="cls-1" cx="20" cy="20" r="20" transform="translate(112 895)"/>
    <path id="linkedin-in-brands" class="cls-2" d="M3.732,48.67H.275V37.541H3.732ZM2,36.022A2.011,2.011,0,1,1,4,34,2.018,2.018,0,0,1,2,36.022ZM16.67,48.67H13.221V43.252c0-1.291-.026-2.947-1.8-2.947-1.8,0-2.073,1.4-2.073,2.854V48.67H5.9V37.541H9.213v1.518h.048a3.632,3.632,0,0,1,3.271-1.8c3.5,0,4.141,2.3,4.141,5.295V48.67Z" transform="translate(124 873)"/>
  </g>
</svg>
