<svg xmlns="http://www.w3.org/2000/svg" xmlns:xlink="http://www.w3.org/1999/xlink" viewBox="0 0 40 40">
  <defs>
    <style>
      .cls-1 {
        fill: url(#linear-gradient);
      }

      .cls-2 {
        fill: #fff;
      }
    </style>
    <linearGradient id="linear-gradient" x2="1" y2="1" gradientUnits="objectBoundingBox">
      <stop offset="0" stop-color="#6fd6ff"/>
      <stop offset="1" stop-color="#bff098"/>
    </linearGradient>
  </defs>
  <g id="Twitter_Icon" data-name="Twitter Icon" transform="translate(-112 -895)">
    <circle id="Ellipse_5" data-name="Ellipse 5" class="cls-1" cx="20" cy="20" r="20" transform="translate(112 895)"/>
    <path id="twitter-brands" class="cls-2" d="M18.415,52.236c.013.182.013.365.013.547A11.887,11.887,0,0,1,6.46,64.752,11.887,11.887,0,0,1,0,62.864a8.7,8.7,0,0,0,1.016.052,8.424,8.424,0,0,0,5.222-1.8A4.214,4.214,0,0,1,2.305,58.2a5.306,5.306,0,0,0,.794.065,4.449,4.449,0,0,0,1.107-.143A4.207,4.207,0,0,1,.833,53.995v-.052a4.236,4.236,0,0,0,1.9.534,4.213,4.213,0,0,1-1.3-5.626,11.957,11.957,0,0,0,8.674,4.4,4.749,4.749,0,0,1-.1-.964,4.211,4.211,0,0,1,7.28-2.878,8.282,8.282,0,0,0,2.67-1.016A4.2,4.2,0,0,1,18.1,50.713a8.433,8.433,0,0,0,2.422-.651A9.043,9.043,0,0,1,18.415,52.236Z" transform="translate(122.56 859.47)"/>
  </g>
</svg>
